<?xml version="1.0" standalone="no"?><!DOCTYPE svg PUBLIC "-//W3C//DTD SVG 1.1//EN" "http://www.w3.org/Graphics/SVG/1.1/DTD/svg11.dtd"><svg t="1650639864799" class="icon" viewBox="0 0 1024 1024" version="1.1" xmlns="http://www.w3.org/2000/svg" p-id="16866" xmlns:xlink="http://www.w3.org/1999/xlink" width="200" height="200"><defs><style type="text/css">@font-face { font-family: feedback-iconfont; src: url("//at.alicdn.com/t/font_1031158_u69w8yhxdu.woff2?t=1630033759944") format("woff2"), url("//at.alicdn.com/t/font_1031158_u69w8yhxdu.woff?t=1630033759944") format("woff"), url("//at.alicdn.com/t/font_1031158_u69w8yhxdu.ttf?t=1630033759944") format("truetype"); }
</style></defs><path d="M825 760H315c-64 0-116-52-116-116V340c0-64 52-116 116-116h510c64 0 116 52 116 116v304c0 64-52 116-116 116zM315 258c-45.2 0-82 36.8-82 82v304c0 45.2 36.8 82 82 82h510c45.2 0 82-36.8 82-82V340c0-45.2-36.8-82-82-82H315z" fill="#454545" p-id="16867"></path><path d="M578 515.8c-4.9 0-9.7-0.9-14.4-2.7L217.4 379.8c-8.8-3.4-13.1-13.2-9.8-22 3.4-8.8 13.2-13.1 22-9.8l346.2 133.3c1.5 0.6 3.1 0.5 4.5-0.1l331.3-142.7c8.6-3.7 18.6 0.3 22.3 8.9 3.7 8.6-0.3 18.6-8.9 22.3L593.9 512.5c-5.1 2.2-10.5 3.3-15.9 3.3z" fill="#454545" p-id="16868"></path><path d="M230.925 707.865l233.858-255.288 25.071 22.967-233.858 255.288zM666.884 469.978l25.973-21.94 215.466 255.066-25.973 21.94z" fill="#454545" p-id="16869"></path><path d="M794.6 871.6H201.2c-58.4 0-106-47.6-106-106V376.2c0-37.1 30.2-67.3 67.3-67.3 9.4 0 17 7.6 17 17s-7.6 17-17 17c-18.4 0-33.3 15-33.3 33.3v389.4c0 39.7 32.3 72 72 72h593.4c29.8 0 54.1-24.3 54.1-54.1 0-9.4 7.6-17 17-17s17 7.6 17 17c0.1 48.6-39.5 88.1-88.1 88.1z" fill="#454545" p-id="16870"></path></svg>