<?xml version="1.0" standalone="no"?><!DOCTYPE svg PUBLIC "-//W3C//DTD SVG 1.1//EN" "http://www.w3.org/Graphics/SVG/1.1/DTD/svg11.dtd"><svg t="1650640062479" class="icon" viewBox="0 0 1024 1024" version="1.1" xmlns="http://www.w3.org/2000/svg" p-id="20759" xmlns:xlink="http://www.w3.org/1999/xlink" width="200" height="200"><defs><style type="text/css">@font-face { font-family: feedback-iconfont; src: url("//at.alicdn.com/t/font_1031158_u69w8yhxdu.woff2?t=1630033759944") format("woff2"), url("//at.alicdn.com/t/font_1031158_u69w8yhxdu.woff?t=1630033759944") format("woff"), url("//at.alicdn.com/t/font_1031158_u69w8yhxdu.ttf?t=1630033759944") format("truetype"); }
</style></defs><path d="M811.67 157.26H214.33C131.99 157.26 65 224.25 65 306.59v392c0 82.34 66.99 149.33 149.33 149.33h597.33c82.34 0 149.33-66.99 149.33-149.33v-392c0.01-82.34-66.98-149.33-149.32-149.33zM670.31 508.75c-0.12-0.12-0.25-0.23-0.38-0.35l216.4-188.83v379.02c0 7.09-1.01 13.94-2.87 20.44L670.31 508.75z m141.36-276.83c16.7 0 32.13 5.51 44.58 14.8L586.64 481.99c-41.97 36.59-105.29 36.62-147.28 0L169.75 246.73c12.45-9.3 27.89-14.81 44.59-14.81h597.33z m-669.14 487.1a74.524 74.524 0 0 1-2.87-20.43V319.57l216.4 188.83c-0.12 0.12-0.25 0.23-0.37 0.35L142.53 719.02z m71.8 54.24c-6.27 0-12.36-0.79-18.18-2.25l211.96-209.1c2.03-2 3.77-4.18 5.25-6.49 30.29 19.06 64.95 28.6 99.62 28.6 34.68 0 69.35-9.54 99.63-28.6a37.71 37.71 0 0 0 5.25 6.49l211.97 209.1a74.636 74.636 0 0 1-18.18 2.25H214.33z" p-id="20760"></path></svg>