<?xml version="1.0" standalone="no"?><!DOCTYPE svg PUBLIC "-//W3C//DTD SVG 1.1//EN" "http://www.w3.org/Graphics/SVG/1.1/DTD/svg11.dtd"><svg t="1652581751415" class="icon" viewBox="0 0 1024 1024" version="1.1" xmlns="http://www.w3.org/2000/svg" p-id="1525" xmlns:xlink="http://www.w3.org/1999/xlink" width="200" height="200"><defs><style type="text/css">@font-face { font-family: feedback-iconfont; src: url("//at.alicdn.com/t/font_1031158_u69w8yhxdu.woff2?t=1630033759944") format("woff2"), url("//at.alicdn.com/t/font_1031158_u69w8yhxdu.woff?t=1630033759944") format("woff"), url("//at.alicdn.com/t/font_1031158_u69w8yhxdu.ttf?t=1630033759944") format("truetype"); }
</style></defs><path d="M595.124706 0a240.941176 240.941176 0 0 1 238.230588 204.8l1.505882 12.167529 32.286118 322.921412 0.90353 3.97553 1.686588 3.734588 17.829647 28.912941a18.070588 18.070588 0 0 1-10.24 26.804706l-4.096 0.722823-59.331765 3.252706-215.582118 17.950118-18.672941 106.496a18.070588 18.070588 0 0 0 17.829647 21.202823H752.941176a240.941176 240.941176 0 0 1 240.64 228.894118l0.301177 12.047059H30.117647a240.941176 240.941176 0 0 1 240.941177-240.941177h155.407058a18.070588 18.070588 0 0 0 17.829647-21.142588l-18.612705-106.556235-214.497883-17.829647-60.235294-3.373177a18.070588 18.070588 0 0 1-14.336-27.587764l17.468235-28.009412a18.070588 18.070588 0 0 0 2.650353-7.770353l32.406589-323.704471A240.941176 240.941176 0 0 1 428.875294 0h166.249412z" fill="#2c2c2c" p-id="1526"></path></svg>