<?xml version="1.0" standalone="no"?><!DOCTYPE svg PUBLIC "-//W3C//DTD SVG 1.1//EN" "http://www.w3.org/Graphics/SVG/1.1/DTD/svg11.dtd"><svg t="1650639684809" class="icon" viewBox="0 0 1024 1024" version="1.1" xmlns="http://www.w3.org/2000/svg" p-id="12734" xmlns:xlink="http://www.w3.org/1999/xlink" width="200" height="200"><defs><style type="text/css">@font-face { font-family: feedback-iconfont; src: url("//at.alicdn.com/t/font_1031158_u69w8yhxdu.woff2?t=1630033759944") format("woff2"), url("//at.alicdn.com/t/font_1031158_u69w8yhxdu.woff?t=1630033759944") format("woff"), url("//at.alicdn.com/t/font_1031158_u69w8yhxdu.ttf?t=1630033759944") format("truetype"); }
</style></defs><path d="M371.75808 632.20736c0-77.45536 62.78656-140.24192 140.24192-140.24192 77.45536 0 140.24192 62.78656 140.24192 140.24192 0 32.9728-11.46368 64.0768-31.60064 88.704a221.30176 221.30176 0 0 1 61.36832 51.54304h230.68672a20.03456 20.03456 0 0 0 20.03456-20.03456V471.93088a20.03456 20.03456 0 0 0-20.03456-20.03456H111.30368a20.03456 20.03456 0 0 0-20.03456 20.03456v280.48896a20.03456 20.03456 0 0 0 20.03456 20.03456h230.68672a221.30176 221.30176 0 0 1 61.36832-51.54304 139.85792 139.85792 0 0 1-31.60064-88.704z m73.27232 113.01376a180.92544 180.92544 0 0 0-77.30176 59.29984 20.03456 20.03456 0 0 1-16.0256 8.00256H111.3088c-33.19296 0-60.10368-26.91072-60.10368-60.1088V471.936c0-33.19296 26.91072-60.1088 60.1088-60.1088h801.3824c33.19808 0 60.1088 26.91584 60.1088 60.1088v280.48896c0 33.19296-26.91072 60.10368-60.1088 60.10368h-240.39936c-6.2976 0-12.2368-2.9696-16.02048-8.00256a180.92544 180.92544 0 0 0-77.30176-59.29984c-14.30528-5.72416-17.06496-24.7808-4.9664-34.32448a99.9424 99.9424 0 0 0 38.1696-78.68928c0-55.3216-44.8512-100.1728-100.1728-100.1728-55.32672 0-100.1728 44.8512-100.1728 100.1728a99.9424 99.9424 0 0 0 38.1696 78.68928c12.09856 9.54368 9.33888 28.60032-4.9664 34.32448z m247.28064 187.50976v-20.03456c0-74.37824-45.45024-140.29824-113.34144-167.4752-14.30528-5.72416-17.06496-24.7808-4.9664-34.32448a99.9424 99.9424 0 0 0 38.1696-78.68928c0-55.3216-44.8512-100.1728-100.1728-100.1728-55.32672 0-100.1728 44.8512-100.1728 100.1728a99.9424 99.9424 0 0 0 38.1696 78.68928c12.09856 9.54368 9.33888 28.60032-4.9664 34.32448-67.8912 27.17696-113.34144 93.09696-113.34144 167.4752v20.03456h360.62208z m40.06912-20.03456v40.06912A20.03456 20.03456 0 0 1 712.3456 972.8H311.6544a20.03456 20.03456 0 0 1-20.03456-20.03456v-40.06912c0-80.72704 43.80672-153.2928 111.72864-191.7952a139.85792 139.85792 0 0 1-31.5904-88.69376c0-77.45536 62.78656-140.24192 140.24192-140.24192 77.45536 0 140.24192 62.78656 140.24192 140.24192a139.85792 139.85792 0 0 1-31.5904 88.69376c67.92192 38.5024 111.72864 111.06816 111.72864 191.7952z m-50.3296-500.86912a180.86912 180.86912 0 0 0-103.08096-107.3664c-14.30528-5.72928-17.06496-24.7808-4.9664-34.3296a99.9424 99.9424 0 0 0 38.1696-78.68928c0-55.3216-44.8512-100.1728-100.1728-100.1728-55.32672 0-100.1728 44.8512-100.1728 100.1728A99.9424 99.9424 0 0 0 449.9968 270.1312c12.09856 9.54368 9.33888 28.60032-4.9664 34.32448a180.86912 180.86912 0 0 0-103.08608 107.3664h340.11136z m45.9264 16.04608a20.03456 20.03456 0 0 1-19.6352 24.02304H315.65824a20.03456 20.03456 0 0 1-19.6352-24.02304c12.76928-62.88896 52.47488-116.60288 107.33056-147.72736A139.85792 139.85792 0 0 1 371.7632 191.4368C371.75808 113.99168 434.54464 51.2 512 51.2c77.45536 0 140.24192 62.79168 140.24192 140.24192 0 32.9728-11.46368 64.07168-31.59552 88.704 54.85568 31.1296 94.5664 84.8384 107.33056 147.72736z" p-id="12735"></path></svg>