<?xml version="1.0" standalone="no"?><!DOCTYPE svg PUBLIC "-//W3C//DTD SVG 1.1//EN" "http://www.w3.org/Graphics/SVG/1.1/DTD/svg11.dtd"><svg t="1650638895195" class="icon" viewBox="0 0 1024 1024" version="1.1" xmlns="http://www.w3.org/2000/svg" p-id="4862" xmlns:xlink="http://www.w3.org/1999/xlink" width="200" height="200"><defs><style type="text/css">@font-face { font-family: feedback-iconfont; src: url("//at.alicdn.com/t/font_1031158_u69w8yhxdu.woff2?t=1630033759944") format("woff2"), url("//at.alicdn.com/t/font_1031158_u69w8yhxdu.woff?t=1630033759944") format("woff"), url("//at.alicdn.com/t/font_1031158_u69w8yhxdu.ttf?t=1630033759944") format("truetype"); }
</style></defs><path d="M507.921067 581.828267a58.88 58.88 0 0 1-25.019734-5.5808L16.904533 357.8624a28.757333 28.757333 0 0 1 0.213334-52.497067l466.5344-214.289066a58.999467 58.999467 0 0 1 48.9728-0.119467l474.120533 214.946133a28.757333 28.757333 0 0 1 0.136533 52.650667L532.5312 576.4352a58.965333 58.965333 0 0 1-24.610133 5.393067zM37.546667 331.6992L496.7424 546.901333a26.658133 26.658133 0 0 0 22.186667 0.085334l467.438933-214.7072-467.217067-211.805867a26.683733 26.683733 0 0 0-21.879466 0.0512zM30.72 328.533333z" p-id="4863"></path><path d="M517.922133 955.588267a409.4976 409.4976 0 0 1-315.1872-147.387734 54.741333 54.741333 0 0 1-12.680533-34.986666V428.672h32.529067v344.507733a22.306133 22.306133 0 0 0 5.162666 14.2848 378.461867 378.461867 0 0 0 457.1904 96.9472 380.893867 380.893867 0 0 0 128.9216-104.0128 22.510933 22.510933 0 0 0 4.864-13.9264V411.776h32.529067v354.696533a54.946133 54.946133 0 0 1-11.895467 34.056534 413.422933 413.422933 0 0 1-139.997866 112.938666 406.7584 406.7584 0 0 1-181.435734 42.120534zM947.7376 360.635733h32.529067v271.701334h-32.529067z" p-id="4864"></path><path d="M996.949333 834.039467h-82.286933a21.905067 21.905067 0 0 1-21.905067-21.905067v-157.866667a21.905067 21.905067 0 0 1 21.905067-21.947733h82.286933a21.905067 21.905067 0 0 1 21.930667 21.922133v157.866667a21.905067 21.905067 0 0 1-21.930667 21.930667z m-12.484266-171.52h-65.006934v136.576h65.006934z" p-id="4865"></path></svg>