<?xml version="1.0" standalone="no"?><!DOCTYPE svg PUBLIC "-//W3C//DTD SVG 1.1//EN" "http://www.w3.org/Graphics/SVG/1.1/DTD/svg11.dtd"><svg t="1650638842650" class="icon" viewBox="0 0 1024 1024" version="1.1" xmlns="http://www.w3.org/2000/svg" p-id="2904" xmlns:xlink="http://www.w3.org/1999/xlink" width="200" height="200"><defs><style type="text/css">@font-face { font-family: feedback-iconfont; src: url("//at.alicdn.com/t/font_1031158_u69w8yhxdu.woff2?t=1630033759944") format("woff2"), url("//at.alicdn.com/t/font_1031158_u69w8yhxdu.woff?t=1630033759944") format("woff"), url("//at.alicdn.com/t/font_1031158_u69w8yhxdu.ttf?t=1630033759944") format("truetype"); }
</style></defs><path d="M792.00256 541.3888a53.18656 53.18656 0 1 0 70.106453-50.373973V274.592427l16.837974-8.43776a19.15904 19.15904 0 0 0-1.102507-34.816L477.2864 62.767787a19.3536 19.3536 0 0 0-17.281707 1.225386L134.120107 257.706667a19.2 19.2 0 0 0 3.474773 34.6112l144.090453 50.517333a246.15936 246.15936 0 0 0 125.467307 323.976533A360.168107 360.168107 0 0 0 155.845973 939.008a18.244267 18.244267 0 0 0 14.22336 21.538133 20.176213 20.176213 0 0 0 3.70688 0.361814 18.3296 18.3296 0 0 0 17.88928-14.547627 323.242667 323.242667 0 0 1 315.76064-257.30048c151.3472 0 283.958613 110.830933 315.29984 258.658987a18.466133 18.466133 0 0 0 21.67808 14.093653 18.2784 18.2784 0 0 0 14.097067-21.67808 366.506667 366.506667 0 0 0-251.6992-273.097387 246.142293 246.142293 0 0 0 124.613973-326.980266l96.768-48.520534v199.49568a53.248 53.248 0 0 0-36.181333 50.373974z m-284.822187 110.114133a209.640107 209.640107 0 0 1-147.715413-358.505813 226.54976 226.54976 0 0 1 295.051947-0.37888 209.62304 209.62304 0 0 1-147.336534 358.884693zM717.824 303.991467a266.73152 266.73152 0 0 0-62.737067-58.975574 245.76 245.76 0 0 0-296.328533 0.365227A267.10016 267.10016 0 0 0 294.570667 306.705067L189.04064 269.728427l282.313387-167.79264L824.5248 250.5728z m127.34464 256.682666a19.298987 19.298987 0 1 1 13.653333-5.635413 19.288747 19.288747 0 0 1-13.653333 5.635413z m0 0" p-id="2905"></path></svg>